<svg xmlns="http://www.w3.org/2000/svg" width="734" height="984" font-size="9" font-family="sans-serif">
<rect x="0" y="0" width="733.6" height="984.0" fill="#fafafa" stroke="#000"/>
<rect x="47.5" y="47.6" width="301.1" height="935.8" fill="#dde8f5" stroke="#333" stroke-width="0.4"/>
<text x="49.9" y="515.5">tiles W (32 x 24)</text>
<rect x="348.6" y="47.6" width="36.4" height="935.8" fill="#f5e3c8" stroke="#333" stroke-width="0.4"/>
<text x="351.0" y="515.5">hub</text>
<rect x="385.0" y="47.6" width="301.1" height="935.8" fill="#dde8f5" stroke="#333" stroke-width="0.4"/>
<text x="387.4" y="515.5">tiles E</text>
<rect x="47.5" y="709.2" width="638.6" height="2.9" fill="#c23b22" stroke="#333" stroke-width="0.4"/>
<rect x="0.6" y="530.7" width="46.9" height="360.0" fill="#9fd39f" stroke="#333" stroke-width="0.4"/>
<text x="3.0" y="710.7">PHY+ctl+strip</text>
<rect x="47.5" y="318.8" width="638.6" height="2.9" fill="#c23b22" stroke="#333" stroke-width="0.4"/>
<rect x="0.6" y="140.3" width="46.9" height="360.0" fill="#9fd39f" stroke="#333" stroke-width="0.4"/>
<text x="3.0" y="320.3">PHY+ctl+strip</text>
<rect x="47.5" y="709.2" width="638.6" height="2.9" fill="#c23b22" stroke="#333" stroke-width="0.4"/>
<rect x="686.1" y="530.7" width="46.9" height="360.0" fill="#9fd39f" stroke="#333" stroke-width="0.4"/>
<text x="688.5" y="710.7">PHY+ctl+strip</text>
<rect x="47.5" y="318.8" width="638.6" height="2.9" fill="#c23b22" stroke="#333" stroke-width="0.4"/>
<rect x="686.1" y="140.3" width="46.9" height="360.0" fill="#9fd39f" stroke="#333" stroke-width="0.4"/>
<text x="688.5" y="320.3">PHY+ctl+strip</text>
<rect x="364.2" y="320.3" width="5.2" height="390.4" fill="#c23b22" stroke="#333" stroke-width="0.4"/>
<rect x="0.6" y="0.7" width="732.4" height="46.9" fill="#e0d0f0" stroke="#333" stroke-width="0.4"/>
<text x="3.0" y="24.1">UCIe + board IO</text>
</svg>
