<svg xmlns="http://www.w3.org/2000/svg" width="954" height="769" viewBox="0 0 954.0 768.9" font-family="sans-serif" font-size="9">
<rect x="0.0" y="-0.0" width="954.0" height="768.9" fill="#f7f7f4" stroke="#555" stroke-width="0.4"><title>die</title></rect>
<rect x="0.6" y="724.0" width="952.8" height="18.9" fill="#cfe3f5" stroke="#555" stroke-width="0.4"><title>svc_south</title></rect>
<rect x="0.6" y="25.8" width="952.8" height="18.9" fill="#cfe3f5" stroke="#555" stroke-width="0.4"><title>svc_north</title></rect>
<rect x="0.6" y="204.4" width="25.0" height="360.0" fill="#f5d0c5" stroke="#555" stroke-width="0.4"><title>ucie_phy</title></rect>
<rect x="213.8" y="472.7" width="66.3" height="75.2" fill="#eee" stroke="#555" stroke-width="0.4"><title>sm0</title></rect>
<rect x="283.4" y="472.7" width="66.3" height="75.2" fill="#eee" stroke="#555" stroke-width="0.4"><title>sm1</title></rect>
<rect x="352.9" y="472.7" width="66.3" height="75.2" fill="#eee" stroke="#555" stroke-width="0.4"><title>sm2</title></rect>
<rect x="422.5" y="472.7" width="66.3" height="75.2" fill="#eee" stroke="#555" stroke-width="0.4"><title>sm3</title></rect>
<rect x="492.1" y="472.7" width="66.3" height="75.2" fill="#eee" stroke="#555" stroke-width="0.4"><title>sm4</title></rect>
<rect x="561.6" y="472.7" width="66.3" height="75.2" fill="#eee" stroke="#555" stroke-width="0.4"><title>sm5</title></rect>
<rect x="631.2" y="472.7" width="66.3" height="75.2" fill="#eee" stroke="#555" stroke-width="0.4"><title>sm6</title></rect>
<rect x="700.8" y="472.7" width="66.3" height="75.2" fill="#eee" stroke="#555" stroke-width="0.4"><title>sm7</title></rect>
<rect x="213.8" y="388.8" width="66.3" height="75.2" fill="#eee" stroke="#555" stroke-width="0.4"><title>sm8</title></rect>
<rect x="283.4" y="388.8" width="66.3" height="75.2" fill="#eee" stroke="#555" stroke-width="0.4"><title>sm9</title></rect>
<rect x="352.9" y="388.8" width="66.3" height="75.2" fill="#eee" stroke="#555" stroke-width="0.4"><title>sm10</title></rect>
<rect x="422.5" y="388.8" width="66.3" height="75.2" fill="#eee" stroke="#555" stroke-width="0.4"><title>sm11</title></rect>
<rect x="492.1" y="388.8" width="66.3" height="75.2" fill="#eee" stroke="#555" stroke-width="0.4"><title>sm12</title></rect>
<rect x="561.6" y="388.8" width="66.3" height="75.2" fill="#eee" stroke="#555" stroke-width="0.4"><title>sm13</title></rect>
<rect x="631.2" y="388.8" width="66.3" height="75.2" fill="#eee" stroke="#555" stroke-width="0.4"><title>sm14</title></rect>
<rect x="700.8" y="388.8" width="66.3" height="75.2" fill="#eee" stroke="#555" stroke-width="0.4"><title>sm15</title></rect>
<rect x="213.8" y="304.8" width="66.3" height="75.2" fill="#eee" stroke="#555" stroke-width="0.4"><title>sm16</title></rect>
<rect x="283.4" y="304.8" width="66.3" height="75.2" fill="#eee" stroke="#555" stroke-width="0.4"><title>sm17</title></rect>
<rect x="352.9" y="304.8" width="66.3" height="75.2" fill="#eee" stroke="#555" stroke-width="0.4"><title>sm18</title></rect>
<rect x="422.5" y="304.8" width="66.3" height="75.2" fill="#eee" stroke="#555" stroke-width="0.4"><title>sm19</title></rect>
<rect x="492.1" y="304.8" width="66.3" height="75.2" fill="#eee" stroke="#555" stroke-width="0.4"><title>sm20</title></rect>
<rect x="561.6" y="304.8" width="66.3" height="75.2" fill="#eee" stroke="#555" stroke-width="0.4"><title>sm21</title></rect>
<rect x="631.2" y="304.8" width="66.3" height="75.2" fill="#eee" stroke="#555" stroke-width="0.4"><title>sm22</title></rect>
<rect x="700.8" y="304.8" width="66.3" height="75.2" fill="#eee" stroke="#555" stroke-width="0.4"><title>sm23</title></rect>
<rect x="213.8" y="220.8" width="66.3" height="75.2" fill="#eee" stroke="#555" stroke-width="0.4"><title>sm24</title></rect>
<rect x="283.4" y="220.8" width="66.3" height="75.2" fill="#eee" stroke="#555" stroke-width="0.4"><title>sm25</title></rect>
<rect x="352.9" y="220.8" width="66.3" height="75.2" fill="#eee" stroke="#555" stroke-width="0.4"><title>sm26</title></rect>
<rect x="422.5" y="220.8" width="66.3" height="75.2" fill="#eee" stroke="#555" stroke-width="0.4"><title>sm27</title></rect>
<rect x="492.1" y="220.8" width="66.3" height="75.2" fill="#eee" stroke="#555" stroke-width="0.4"><title>sm28</title></rect>
<rect x="561.6" y="220.8" width="66.3" height="75.2" fill="#eee" stroke="#555" stroke-width="0.4"><title>sm29</title></rect>
<rect x="631.2" y="220.8" width="66.3" height="75.2" fill="#eee" stroke="#555" stroke-width="0.4"><title>sm30</title></rect>
<rect x="700.8" y="220.8" width="66.3" height="75.2" fill="#eee" stroke="#555" stroke-width="0.4"><title>sm31</title></rect>
<rect x="307.2" y="709.6" width="88.1" height="12.7" fill="#eee" stroke="#555" stroke-width="0.4"><title>l2_s0</title></rect>
<rect x="585.5" y="709.6" width="88.1" height="12.7" fill="#eee" stroke="#555" stroke-width="0.4"><title>l2_s1</title></rect>
<rect x="307.2" y="46.5" width="88.1" height="12.7" fill="#eee" stroke="#555" stroke-width="0.4"><title>l2_n0</title></rect>
<rect x="585.5" y="46.5" width="88.1" height="12.7" fill="#eee" stroke="#555" stroke-width="0.4"><title>l2_n1</title></rect>
<rect x="58.5" y="743.2" width="360.0" height="25.0" fill="#7aa6d6" stroke="#234"><title>u_hbm_s0</title></rect>
<rect x="58.5" y="0.6" width="360.0" height="25.0" fill="#7aa6d6" stroke="#234"><title>u_hbm_n0</title></rect>
<rect x="535.5" y="743.2" width="360.0" height="25.0" fill="#7aa6d6" stroke="#234"><title>u_hbm_s1</title></rect>
<rect x="535.5" y="0.6" width="360.0" height="25.0" fill="#7aa6d6" stroke="#234"><title>u_hbm_n1</title></rect>
<text x="2.4" y="733.5">svc_south</text>
<text x="2.4" y="35.3">svc_north</text>
<text x="215.6" y="510.3">sm0</text>
<text x="285.2" y="510.3">sm1</text>
<text x="354.7" y="510.3">sm2</text>
<text x="424.3" y="510.3">sm3</text>
<text x="493.9" y="510.3">sm4</text>
<text x="563.4" y="510.3">sm5</text>
<text x="633.0" y="510.3">sm6</text>
<text x="702.6" y="510.3">sm7</text>
<text x="215.6" y="426.3">sm8</text>
<text x="285.2" y="426.3">sm9</text>
<text x="354.7" y="426.3">sm10</text>
<text x="424.3" y="426.3">sm11</text>
<text x="493.9" y="426.3">sm12</text>
<text x="563.4" y="426.3">sm13</text>
<text x="633.0" y="426.3">sm14</text>
<text x="702.6" y="426.3">sm15</text>
<text x="215.6" y="342.4">sm16</text>
<text x="285.2" y="342.4">sm17</text>
<text x="354.7" y="342.4">sm18</text>
<text x="424.3" y="342.4">sm19</text>
<text x="493.9" y="342.4">sm20</text>
<text x="563.4" y="342.4">sm21</text>
<text x="633.0" y="342.4">sm22</text>
<text x="702.6" y="342.4">sm23</text>
<text x="215.6" y="258.4">sm24</text>
<text x="285.2" y="258.4">sm25</text>
<text x="354.7" y="258.4">sm26</text>
<text x="424.3" y="258.4">sm27</text>
<text x="493.9" y="258.4">sm28</text>
<text x="563.4" y="258.4">sm29</text>
<text x="633.0" y="258.4">sm30</text>
<text x="702.6" y="258.4">sm31</text>
<text x="309.0" y="715.9">l2_s0</text>
<text x="587.3" y="715.9">l2_s1</text>
<text x="309.0" y="52.9">l2_n0</text>
<text x="587.3" y="52.9">l2_n1</text>
</svg>
